M48
;Layer_Color=9474304
;FILE_FORMAT=4:4
METRIC,LZ
;TYPE=PLATED
T1F00S00C0.7620
T2F00S00C1.1000
T3F00S00C1.3000
T4F00S00C3.2000
%
T01
X0010668Y0013208
X0018305
X0047117Y0048387
X0046863Y0062865
X0042418
X002667Y0062738
X0024257Y0065405
X0024003Y007747
X0026543Y0083693
T02
X0016634Y0019685
Y0022225
Y0024765
Y0027305
Y0029845
Y0032385
Y0034925
Y0037465
Y0040005
Y0042545
Y0045085
Y0047625
Y0050165
Y0052705
X0032134
Y0050165
Y0047625
Y0045085
Y0042545
Y0040005
Y0037465
Y0034925
Y0032385
Y0029845
Y0027305
Y0024765
Y0022225
Y0019685
Y0055245
Y0057785
Y0060325
Y0062865
Y0065405
Y0067945
X0016634
Y0065405
Y0062865
Y0060325
Y0057785
Y0055245
T03
X0006985Y0007493
X0009525
X0012065
X0014605
X0048514Y0010414
X0051054
X0053594
X0040386Y0019685
Y0022225
Y0024765
Y0027305
Y0029845
Y0032385
Y0034925
Y0037465
Y0040005
Y0042545
Y0045085
Y0047625
Y0050165
Y0052705
X0048641Y0037465
Y0034925
Y0032385
Y0029845
X0008128
Y0027305
Y0024765
Y0022225
Y0019685
Y0032385
Y0034925
Y0037465
Y0040005
Y0042545
Y0045085
Y0047625
Y0050165
Y0052705
Y0055245
Y0057785
Y0060325
Y0062865
Y0065405
Y0067945
X0008255Y0080772
X0010795
X0013335
X0037211Y0081788
X0039751
X0042291
X0040386Y0067945
Y0065405
Y0062865
Y0060325
Y0057785
Y0055245
X0048895Y0060325
Y0062865
Y0065405
Y0067945
X0051435
Y0065405
Y0062865
Y0060325
T04
X0003302Y0003429
X0059817Y0003683
X0003429Y0084201
X005969
M30
