M48
;Layer_Color=9474304
;FILE_FORMAT=4:4
METRIC,LZ
;TYPE=PLATED
T1F00S00C0.3302
T2F00S00C0.7620
T3F00S00C1.1000
T4F00S00C1.3000
T5F00S00C3.1000
%
T01
X00016454Y00023309
X00013716Y00032512
X00015946Y00041851
X00022547Y00048824
X0003175Y00051562
X00041089Y00049332
X00048062Y00042731
X000508Y00033528
X0004857Y00024189
X00041969Y00017216
X00032766Y00014478
X00023427Y00016708
X00586176Y00069029
X00583438Y00078232
X00585668Y00087571
X00592269Y00094544
X00601472Y00097282
X00610811Y00095052
X00617784Y00088451
X00620522Y00079248
X00618292Y00069909
X00611691Y00062936
X00602488Y00060198
X00593149Y00062428
X00041461Y00828746
X00032258Y00826008
X00022919Y00828238
X00015946Y00834839
X00013208Y00844042
X00015438Y00853381
X00022039Y00860354
X00031242Y00863092
X00040581Y00860862
X00047554Y00854261
X00050292Y00845058
X00048062Y00835719
X00592526Y00838649
X00589788Y00847852
X00592018Y00857191
X00598619Y00864164
X00607822Y00866902
X00617161Y00864672
X00624134Y00858071
X00626872Y00848868
X00624642Y00839529
X00618041Y00832556
X00608838Y00829818
X00599499Y00832048
T02
X0051562Y0013335
X0054229Y0023241
Y0033655
X0051943Y0036449
X0051816Y004445
X0051562Y0023241
X0014605Y0025908
Y0042164
X000127Y0026543
X0013716Y0065659
Y0079756
X0006096Y0077216
X0021336Y0063754
X0044069Y008128
X0058801Y0077343
T03
X0054356Y0053213
X0056896Y0053213
X0051816
X0049276
X0046736Y0053213
X0044196
X0041656Y0053213
X0039116
X0036576Y0053213
X0034036
X0031496
X0028956Y0053213
X0026416
X0023876Y0053213
X0021336
X0018796Y0053213
X0016256
X0013716
X0011176Y0053213
X0008636
Y0068713
X0011176
X0013716Y0068713
X0016256Y0068713
X0018796Y0068713
X0021336Y0068713
X0023876
X0026416Y0068713
X0028956
X0031496Y0068713
X0034036
X0036576
X0039116Y0068713
X0041656Y0068713
X0044196Y0068713
X0046736
X0049276Y0068713
X0051816Y0068713
X0054356
X0056896
T04
X0009906Y0012065
X0012446
X0014986
X0017526
X0026416Y0007366
X0028956
X0031496
X0034036
X0049022Y0006731
X0051562
X0054102
X00592641Y0015621
Y0018161
Y0020701
Y0023241
X0059944Y0033655
Y0036195
Y0038735
X0057404
Y0036195
Y0033655
Y0041275
X0059944
X0056896Y0047371
X0054356
X0051816
X0049276
X0046736
X0044196
X0041656
X0039116
X0036576
X0034036
X0031496
X0028956
X0026416
X0023876
X0021336
X0018796
X0016256
X0013716
X0011176
X0008636
X0005334Y0039243
Y0036703
Y0034163
Y0031623
Y0029083
Y0026543
Y0024003
Y0021463
Y0018923
Y0016383
X0001524Y0016383
Y0018923
X0008636Y0075311
X0011176
X0013716
X0014097Y0084836
X0011557
X0016637
X0019177
X0018796Y0075311
X0016256
X0021336
X0023876
X0026416
X0028956
X0031496
X0034036
X0036576
X0039116
X0041656
X0044196
X0046736
X0049276
X0051816
X0051181Y0080264
X0048641
X0053721
X0037846Y0083312
X0035306
X0032766
X0030226
X0027686
X0056261Y0080264
X0058801
X0061976Y0077851
Y0075311
Y0072771
X0056896Y0075311
X0054356
T05
X00032258Y0003302
X0060198Y0007874
X0003175Y0084455
X0060833Y0084836
M30
